# xmcd
#
# Track frame offsets:
#	150
#	9392
#	19290
#	29340
#	42165
#	54465
#	68942
#	84315
#	95717
#	108542
#	118817
#	130517
#	142820
#	152492
#	167862
#	177765
#	187515
#	197642
#	208020
#	222392
#
# Disc length: 3144 seconds
#
# Revision: 1
# Processed by: cddbd v1.5.2PL0 Copyright (c) Steve Scherf et al.
# Submitted via: audiograbber 1.83.01
#
DISCID=0c0c4614
DTITLE=Various Artist - Country Stars
DYEAR=1900
DGENRE=Country
TTITLE0=Del Reeves - Good Time Charlie
TTITLE1=Ernest Tubb - Half My Heart's in Texas
TTITLE2=Johnny Lee - Red Sails In The Sunset
TTITLE3=Kenny Rogers - Ruby, Don't Take Your Love To Town
TTITLE4=Johnny Cash - I Walk The Line
TTITLE5=Dave Dudley - It Wasn't God Who Made Honkey Tonk Angels
TTITLE6=Ernest Tubb - Soldier's Last Letter
TTITLE7=Dave Dudley - Six Days On The Road
TTITLE8=Bobby Helmes - Fraulein
TTITLE9=George Jones - Walk Through This World With Me
TTITLE10=George Jones - White Lightning
TTITLE11=Kenny Rogers - Ruben James
TTITLE12=Johnny Cash - Ballad Of A Teenage Queen
TTITLE13=Johnny Lee - Country Party
TTITLE14=Johnny Cash - Rock Island Line
TTITLE15=George Jones - I've Got Five Dollars And It's Saturday Night
TTITLE16=Ferlin Husky - Wings Of A Dove
TTITLE17=Patsy Cline - Three Cigaretts In An Ashtray
TTITLE18=Bobby Helmes - My Special Angel
TTITLE19=The Oak Ridge Boys - The Old Country Church
EXTD=
EXTT0=
EXTT1=
EXTT2=
EXTT3=
EXTT4=
EXTT5=
EXTT6=
EXTT7=
EXTT8=
EXTT9=
EXTT10=
EXTT11=
EXTT12=
EXTT13=
EXTT14=
EXTT15=
EXTT16=
EXTT17=
EXTT18=
EXTT19=
PLAYORDER=
